# xmcd
#
# Track frame offsets:
# 180
# 20443
# 37899
# 52960
# 74176
# 89370
# 104522
# 119113
# 141744
# 159722
# 173459
# 179673
#
# Disc length: 2677 seconds
#
#
# Revision: 0
# Processed by: cddbd v1.5.1PL2 Copyright (c) Steve Scherf et al.
# Submitted via: FreeRIP 2.944 
#
DISCID=b30a730c
DTITLE=Greg Koch and The Tone Controls - Greg Koch and The Tone Controls
DYEAR=1993
DGENRE=Pop Blues
TTITLE0=Beg Borrow and Steal
TTITLE1=Smack Dab
TTITLE2=Dr. Jekyll
TTITLE3=Ain't Got Problems
TTITLE4=Nothing To Lose
TTITLE5=Mean Streak
TTITLE6=Heed The Need
TTITLE7=Too Broke
TTITLE8=Words
TTITLE9=Cruise Every Highway
TTITLE10=Sitarmageddon
TTITLE11=Tonus Diabolicus
EXTD=Greg is one of Milwaukee, WI's best guitarists.\nAs of 2006, Greg is a national clinician for Fender.
EXTT0=
EXTT1=
EXTT2=
EXTT3=
EXTT4=
EXTT5=
EXTT6=
EXTT7=
EXTT8=
EXTT9=
EXTT10=
EXTT11=
PLAYORDER=
